<mxfile host="app.diagrams.net" modified="2023-12-16T14:16:13.672Z" agent="Mozilla/5.0 (X11; Linux x86_64) AppleWebKit/537.36 (KHTML, like Gecko) Chrome/115.0.0.0 Safari/537.36" etag="su1P00mrLJa2azcfgy8Y" version="22.1.11" type="device">
  <diagram name="Page-1" id="1kxsrUT7nrdaGYhW99Dr">
    <mxGraphModel dx="989" dy="1615" grid="1" gridSize="10" guides="1" tooltips="1" connect="1" arrows="1" fold="1" page="1" pageScale="1" pageWidth="850" pageHeight="1100" math="0" shadow="0">
      <root>
        <mxCell id="0" />
        <mxCell id="1" parent="0" />
        <mxCell id="jvdhxDSraGoJmhO3MUvB-20" value="Vertical Container" style="swimlane;whiteSpace=wrap;html=1;" vertex="1" parent="1">
          <mxGeometry x="90" y="-30" width="660" height="1030" as="geometry" />
        </mxCell>
        <mxCell id="jvdhxDSraGoJmhO3MUvB-17" value="client" style="shape=umlActor;verticalLabelPosition=bottom;verticalAlign=top;html=1;outlineConnect=0;" vertex="1" parent="jvdhxDSraGoJmhO3MUvB-20">
          <mxGeometry x="40" y="280" width="30" height="60" as="geometry" />
        </mxCell>
        <mxCell id="jvdhxDSraGoJmhO3MUvB-18" value="responses:&lt;br&gt;accepted: joint successfully&lt;br&gt;rejected: incorrect password&lt;br&gt;rejected: lobby is full&lt;br&gt;rejected: game started and specter is not allowed&lt;br&gt;rejected: unknown reason&lt;br&gt;&lt;br&gt;if accepted: return an generated id which is valid on this lobby for requests" style="edgeStyle=orthogonalEdgeStyle;rounded=0;orthogonalLoop=1;jettySize=auto;html=1;" edge="1" parent="jvdhxDSraGoJmhO3MUvB-20" source="jvdhxDSraGoJmhO3MUvB-19" target="jvdhxDSraGoJmhO3MUvB-17">
          <mxGeometry x="0.0441" y="20" relative="1" as="geometry">
            <Array as="points">
              <mxPoint x="345" y="420" />
              <mxPoint x="345" y="410" />
            </Array>
            <mxPoint as="offset" />
          </mxGeometry>
        </mxCell>
        <mxCell id="jvdhxDSraGoJmhO3MUvB-19" value="server" style="shape=umlActor;verticalLabelPosition=bottom;verticalAlign=top;html=1;outlineConnect=0;" vertex="1" parent="jvdhxDSraGoJmhO3MUvB-20">
          <mxGeometry x="600" y="320" width="30" height="60" as="geometry" />
        </mxCell>
        <mxCell id="jvdhxDSraGoJmhO3MUvB-16" value="request: ok password is (password)" style="edgeStyle=orthogonalEdgeStyle;rounded=0;orthogonalLoop=1;jettySize=auto;html=1;" edge="1" parent="jvdhxDSraGoJmhO3MUvB-20" source="jvdhxDSraGoJmhO3MUvB-17" target="jvdhxDSraGoJmhO3MUvB-19">
          <mxGeometry x="-0.08" relative="1" as="geometry">
            <mxPoint as="offset" />
          </mxGeometry>
        </mxCell>
        <mxCell id="jvdhxDSraGoJmhO3MUvB-3" value="client" style="shape=umlActor;verticalLabelPosition=bottom;verticalAlign=top;html=1;outlineConnect=0;" vertex="1" parent="jvdhxDSraGoJmhO3MUvB-20">
          <mxGeometry x="40" y="50" width="30" height="60" as="geometry" />
        </mxCell>
        <mxCell id="jvdhxDSraGoJmhO3MUvB-15" value="responses:&lt;br&gt;rejected(ip blocked),&lt;br&gt;rejected(identity blocked)&lt;br&gt;rejected(lobby is full),&lt;br&gt;rejected(game-startd-specter-not-allowed)&lt;br&gt;rejected(invalid identity)&lt;br&gt;accepted: enter your password&lt;br&gt;rejected: unknown reason" style="edgeStyle=orthogonalEdgeStyle;rounded=0;orthogonalLoop=1;jettySize=auto;html=1;" edge="1" parent="jvdhxDSraGoJmhO3MUvB-20" source="jvdhxDSraGoJmhO3MUvB-13" target="jvdhxDSraGoJmhO3MUvB-3">
          <mxGeometry x="-0.04" y="40" relative="1" as="geometry">
            <Array as="points">
              <mxPoint x="315" y="120" />
              <mxPoint x="315" y="110" />
            </Array>
            <mxPoint as="offset" />
          </mxGeometry>
        </mxCell>
        <mxCell id="jvdhxDSraGoJmhO3MUvB-13" value="server" style="shape=umlActor;verticalLabelPosition=bottom;verticalAlign=top;html=1;outlineConnect=0;" vertex="1" parent="jvdhxDSraGoJmhO3MUvB-20">
          <mxGeometry x="560" y="60" width="30" height="60" as="geometry" />
        </mxCell>
        <mxCell id="jvdhxDSraGoJmhO3MUvB-14" value="request join to lobby(identity)" style="edgeStyle=orthogonalEdgeStyle;rounded=0;orthogonalLoop=1;jettySize=auto;html=1;" edge="1" parent="jvdhxDSraGoJmhO3MUvB-20" source="jvdhxDSraGoJmhO3MUvB-3" target="jvdhxDSraGoJmhO3MUvB-13">
          <mxGeometry relative="1" as="geometry" />
        </mxCell>
        <mxCell id="jvdhxDSraGoJmhO3MUvB-23" value="client" style="shape=umlActor;verticalLabelPosition=bottom;verticalAlign=top;html=1;outlineConnect=0;" vertex="1" parent="jvdhxDSraGoJmhO3MUvB-20">
          <mxGeometry x="30" y="560" width="30" height="60" as="geometry" />
        </mxCell>
        <mxCell id="jvdhxDSraGoJmhO3MUvB-24" value="responses:&lt;br&gt;rejected: text chat is disabled&lt;br&gt;accepted: sent successfully&lt;br&gt;&lt;br&gt;if accepted boradcast text message to all connected clients even sender" style="edgeStyle=orthogonalEdgeStyle;rounded=0;orthogonalLoop=1;jettySize=auto;html=1;" edge="1" parent="jvdhxDSraGoJmhO3MUvB-20" source="jvdhxDSraGoJmhO3MUvB-25" target="jvdhxDSraGoJmhO3MUvB-23">
          <mxGeometry x="0.0386" relative="1" as="geometry">
            <Array as="points">
              <mxPoint x="335" y="700" />
              <mxPoint x="335" y="690" />
            </Array>
            <mxPoint as="offset" />
          </mxGeometry>
        </mxCell>
        <mxCell id="jvdhxDSraGoJmhO3MUvB-25" value="server" style="shape=umlActor;verticalLabelPosition=bottom;verticalAlign=top;html=1;outlineConnect=0;" vertex="1" parent="jvdhxDSraGoJmhO3MUvB-20">
          <mxGeometry x="590" y="600" width="30" height="60" as="geometry" />
        </mxCell>
        <mxCell id="jvdhxDSraGoJmhO3MUvB-26" value="request: send text chat (text, specific joint to lobby id)" style="edgeStyle=orthogonalEdgeStyle;rounded=0;orthogonalLoop=1;jettySize=auto;html=1;" edge="1" parent="jvdhxDSraGoJmhO3MUvB-20" source="jvdhxDSraGoJmhO3MUvB-23" target="jvdhxDSraGoJmhO3MUvB-25">
          <mxGeometry x="-0.08" relative="1" as="geometry">
            <mxPoint as="offset" />
          </mxGeometry>
        </mxCell>
        <mxCell id="jvdhxDSraGoJmhO3MUvB-28" value="" style="endArrow=none;html=1;rounded=0;fillColor=#d5e8d4;strokeColor=#82b366;" edge="1" parent="jvdhxDSraGoJmhO3MUvB-20">
          <mxGeometry width="50" height="50" relative="1" as="geometry">
            <mxPoint y="520" as="sourcePoint" />
            <mxPoint x="660" y="530" as="targetPoint" />
          </mxGeometry>
        </mxCell>
        <mxCell id="jvdhxDSraGoJmhO3MUvB-29" value="" style="endArrow=none;html=1;rounded=0;fillColor=#d5e8d4;strokeColor=#82b366;" edge="1" parent="jvdhxDSraGoJmhO3MUvB-20">
          <mxGeometry width="50" height="50" relative="1" as="geometry">
            <mxPoint y="770" as="sourcePoint" />
            <mxPoint x="660" y="760" as="targetPoint" />
          </mxGeometry>
        </mxCell>
        <mxCell id="jvdhxDSraGoJmhO3MUvB-30" value="client" style="shape=umlActor;verticalLabelPosition=bottom;verticalAlign=top;html=1;outlineConnect=0;" vertex="1" parent="jvdhxDSraGoJmhO3MUvB-20">
          <mxGeometry x="30" y="790" width="30" height="60" as="geometry" />
        </mxCell>
        <mxCell id="jvdhxDSraGoJmhO3MUvB-31" value="responses:&lt;br&gt;rejected: voice chat is disabled&lt;br&gt;accepted: sent successfully&lt;br&gt;&lt;br&gt;if accepted boradcast voiceData to all connected clients except &lt;br&gt;sender and&amp;nbsp; those clients if client.speakerStatus == closed" style="edgeStyle=orthogonalEdgeStyle;rounded=0;orthogonalLoop=1;jettySize=auto;html=1;" edge="1" parent="jvdhxDSraGoJmhO3MUvB-20" source="jvdhxDSraGoJmhO3MUvB-32" target="jvdhxDSraGoJmhO3MUvB-30">
          <mxGeometry x="0.0441" y="30" relative="1" as="geometry">
            <Array as="points">
              <mxPoint x="335" y="930" />
              <mxPoint x="335" y="920" />
            </Array>
            <mxPoint as="offset" />
          </mxGeometry>
        </mxCell>
        <mxCell id="jvdhxDSraGoJmhO3MUvB-32" value="server" style="shape=umlActor;verticalLabelPosition=bottom;verticalAlign=top;html=1;outlineConnect=0;" vertex="1" parent="jvdhxDSraGoJmhO3MUvB-20">
          <mxGeometry x="590" y="830" width="30" height="60" as="geometry" />
        </mxCell>
        <mxCell id="jvdhxDSraGoJmhO3MUvB-33" value="request: send voice chat (voiceData, specific joint to lobby id)" style="edgeStyle=orthogonalEdgeStyle;rounded=0;orthogonalLoop=1;jettySize=auto;html=1;" edge="1" parent="jvdhxDSraGoJmhO3MUvB-20" source="jvdhxDSraGoJmhO3MUvB-30" target="jvdhxDSraGoJmhO3MUvB-32">
          <mxGeometry x="-0.08" relative="1" as="geometry">
            <mxPoint as="offset" />
          </mxGeometry>
        </mxCell>
        <mxCell id="jvdhxDSraGoJmhO3MUvB-27" value="" style="endArrow=none;html=1;rounded=0;fillColor=#d5e8d4;strokeColor=#82b366;" edge="1" parent="1">
          <mxGeometry width="50" height="50" relative="1" as="geometry">
            <mxPoint x="90" y="210" as="sourcePoint" />
            <mxPoint x="750" y="220" as="targetPoint" />
          </mxGeometry>
        </mxCell>
        <mxCell id="jvdhxDSraGoJmhO3MUvB-34" value="lobby request list" style="swimlane;fontStyle=0;childLayout=stackLayout;horizontal=1;startSize=30;horizontalStack=0;resizeParent=1;resizeParentMax=0;resizeLast=0;collapsible=1;marginBottom=0;whiteSpace=wrap;html=1;" vertex="1" parent="1">
          <mxGeometry x="820" y="20" width="510" height="480" as="geometry" />
        </mxCell>
        <mxCell id="jvdhxDSraGoJmhO3MUvB-47" value="0.join to lobby (identity)" style="text;strokeColor=none;fillColor=none;align=left;verticalAlign=middle;spacingLeft=4;spacingRight=4;overflow=hidden;points=[[0,0.5],[1,0.5]];portConstraint=eastwest;rotatable=0;whiteSpace=wrap;html=1;" vertex="1" parent="jvdhxDSraGoJmhO3MUvB-34">
          <mxGeometry y="30" width="510" height="30" as="geometry" />
        </mxCell>
        <mxCell id="jvdhxDSraGoJmhO3MUvB-35" value="1.reconnect to lobby(identity, lobbySecurityId)" style="text;strokeColor=none;fillColor=none;align=left;verticalAlign=middle;spacingLeft=4;spacingRight=4;overflow=hidden;points=[[0,0.5],[1,0.5]];portConstraint=eastwest;rotatable=0;whiteSpace=wrap;html=1;" vertex="1" parent="jvdhxDSraGoJmhO3MUvB-34">
          <mxGeometry y="60" width="510" height="30" as="geometry" />
        </mxCell>
        <mxCell id="jvdhxDSraGoJmhO3MUvB-36" value="2.entered passowrd is(passwod)" style="text;strokeColor=none;fillColor=none;align=left;verticalAlign=middle;spacingLeft=4;spacingRight=4;overflow=hidden;points=[[0,0.5],[1,0.5]];portConstraint=eastwest;rotatable=0;whiteSpace=wrap;html=1;" vertex="1" parent="jvdhxDSraGoJmhO3MUvB-34">
          <mxGeometry y="90" width="510" height="30" as="geometry" />
        </mxCell>
        <mxCell id="jvdhxDSraGoJmhO3MUvB-37" value="3.send text chat (message, lobbySecurityId)&lt;br&gt;//lobbySecurityId is an id generated by that lobby only valid on that lobby to make sure that client is same as authicationed" style="text;strokeColor=none;fillColor=none;align=left;verticalAlign=middle;spacingLeft=4;spacingRight=4;overflow=hidden;points=[[0,0.5],[1,0.5]];portConstraint=eastwest;rotatable=0;whiteSpace=wrap;html=1;" vertex="1" parent="jvdhxDSraGoJmhO3MUvB-34">
          <mxGeometry y="120" width="510" height="30" as="geometry" />
        </mxCell>
        <mxCell id="jvdhxDSraGoJmhO3MUvB-40" value="4.send voice chat(voiceData, lobbySecurityId)" style="text;strokeColor=none;fillColor=none;align=left;verticalAlign=middle;spacingLeft=4;spacingRight=4;overflow=hidden;points=[[0,0.5],[1,0.5]];portConstraint=eastwest;rotatable=0;whiteSpace=wrap;html=1;" vertex="1" parent="jvdhxDSraGoJmhO3MUvB-34">
          <mxGeometry y="150" width="510" height="30" as="geometry" />
        </mxCell>
        <mxCell id="jvdhxDSraGoJmhO3MUvB-41" value="5.giveLobbySettingsInfo(lobbySecurityId)" style="text;strokeColor=none;fillColor=none;align=left;verticalAlign=middle;spacingLeft=4;spacingRight=4;overflow=hidden;points=[[0,0.5],[1,0.5]];portConstraint=eastwest;rotatable=0;whiteSpace=wrap;html=1;" vertex="1" parent="jvdhxDSraGoJmhO3MUvB-34">
          <mxGeometry y="180" width="510" height="30" as="geometry" />
        </mxCell>
        <mxCell id="jvdhxDSraGoJmhO3MUvB-42" value="6.updateLobbySettingsInfo(LobbySettingsUpdatedInfo, lobbySecurityId, identity)" style="text;strokeColor=#b85450;fillColor=#f8cecc;align=left;verticalAlign=middle;spacingLeft=4;spacingRight=4;overflow=hidden;points=[[0,0.5],[1,0.5]];portConstraint=eastwest;rotatable=0;whiteSpace=wrap;html=1;" vertex="1" parent="jvdhxDSraGoJmhO3MUvB-34">
          <mxGeometry y="210" width="510" height="30" as="geometry" />
        </mxCell>
        <mxCell id="jvdhxDSraGoJmhO3MUvB-43" value="7.getLobbyInfo(lobbySecurityId)" style="text;strokeColor=none;fillColor=none;align=left;verticalAlign=middle;spacingLeft=4;spacingRight=4;overflow=hidden;points=[[0,0.5],[1,0.5]];portConstraint=eastwest;rotatable=0;whiteSpace=wrap;html=1;" vertex="1" parent="jvdhxDSraGoJmhO3MUvB-34">
          <mxGeometry y="240" width="510" height="30" as="geometry" />
        </mxCell>
        <mxCell id="jvdhxDSraGoJmhO3MUvB-44" value="8.leave lobby(lobbySecurityId, identity)" style="text;strokeColor=#b85450;fillColor=#f8cecc;align=left;verticalAlign=middle;spacingLeft=4;spacingRight=4;overflow=hidden;points=[[0,0.5],[1,0.5]];portConstraint=eastwest;rotatable=0;whiteSpace=wrap;html=1;" vertex="1" parent="jvdhxDSraGoJmhO3MUvB-34">
          <mxGeometry y="270" width="510" height="30" as="geometry" />
        </mxCell>
        <mxCell id="jvdhxDSraGoJmhO3MUvB-45" value="9.start game(lobbySecurityId, identity)" style="text;strokeColor=#b85450;fillColor=#f8cecc;align=left;verticalAlign=middle;spacingLeft=4;spacingRight=4;overflow=hidden;points=[[0,0.5],[1,0.5]];portConstraint=eastwest;rotatable=0;whiteSpace=wrap;html=1;" vertex="1" parent="jvdhxDSraGoJmhO3MUvB-34">
          <mxGeometry y="300" width="510" height="30" as="geometry" />
        </mxCell>
        <mxCell id="jvdhxDSraGoJmhO3MUvB-46" value="10.end game(lobbySecurityId, identity)" style="text;strokeColor=#b85450;fillColor=#f8cecc;align=left;verticalAlign=middle;spacingLeft=4;spacingRight=4;overflow=hidden;points=[[0,0.5],[1,0.5]];portConstraint=eastwest;rotatable=0;whiteSpace=wrap;html=1;" vertex="1" parent="jvdhxDSraGoJmhO3MUvB-34">
          <mxGeometry y="330" width="510" height="30" as="geometry" />
        </mxCell>
        <mxCell id="jvdhxDSraGoJmhO3MUvB-48" value="11.delete lobby(lobbySecuirtyId, identity)" style="text;strokeColor=#b85450;fillColor=#f8cecc;align=left;verticalAlign=middle;spacingLeft=4;spacingRight=4;overflow=hidden;points=[[0,0.5],[1,0.5]];portConstraint=eastwest;rotatable=0;whiteSpace=wrap;html=1;" vertex="1" parent="jvdhxDSraGoJmhO3MUvB-34">
          <mxGeometry y="360" width="510" height="30" as="geometry" />
        </mxCell>
        <mxCell id="jvdhxDSraGoJmhO3MUvB-49" value="12.kick player(target, reason, lobbySecurityId, identity)" style="text;strokeColor=#b85450;fillColor=#f8cecc;align=left;verticalAlign=middle;spacingLeft=4;spacingRight=4;overflow=hidden;points=[[0,0.5],[1,0.5]];portConstraint=eastwest;rotatable=0;whiteSpace=wrap;html=1;" vertex="1" parent="jvdhxDSraGoJmhO3MUvB-34">
          <mxGeometry y="390" width="510" height="30" as="geometry" />
        </mxCell>
        <mxCell id="jvdhxDSraGoJmhO3MUvB-50" value="13.ban player(target, reason, banTime, lobbySecurityId, identity)" style="text;strokeColor=#b85450;fillColor=#f8cecc;align=left;verticalAlign=middle;spacingLeft=4;spacingRight=4;overflow=hidden;points=[[0,0.5],[1,0.5]];portConstraint=eastwest;rotatable=0;whiteSpace=wrap;html=1;" vertex="1" parent="jvdhxDSraGoJmhO3MUvB-34">
          <mxGeometry y="420" width="510" height="30" as="geometry" />
        </mxCell>
        <mxCell id="jvdhxDSraGoJmhO3MUvB-51" value="14.tansfer/change ownership (target, lobbySecuirty, identity)" style="text;strokeColor=#b85450;fillColor=#f8cecc;align=left;verticalAlign=middle;spacingLeft=4;spacingRight=4;overflow=hidden;points=[[0,0.5],[1,0.5]];portConstraint=eastwest;rotatable=0;whiteSpace=wrap;html=1;" vertex="1" parent="jvdhxDSraGoJmhO3MUvB-34">
          <mxGeometry y="450" width="510" height="30" as="geometry" />
        </mxCell>
      </root>
    </mxGraphModel>
  </diagram>
</mxfile>
